<svg width="14" height="18" viewBox="0 0 14 18" fill="none" xmlns="http://www.w3.org/2000/svg">
<path d="M8.37253 6.4165L8.62549 5.4724L9.68382 1.5224L9.68468 1.51918C9.68806 1.50683 9.68854 1.49385 9.68608 1.48128C9.68372 1.46918 9.67869 1.45775 9.67138 1.44783C9.66367 1.43817 9.6539 1.43033 9.64277 1.42491C9.6312 1.41927 9.61849 1.41639 9.60562 1.41648L9.59994 1.41653V1.4165H3.7666H3.75376L3.74093 1.41606C3.72211 1.41542 3.70364 1.42116 3.6885 1.43236C3.67338 1.44355 3.66249 1.45954 3.6576 1.4777L8.37253 6.4165ZM8.37253 6.4165H9.34994H13.1398C13.1523 6.41838 13.1643 6.42309 13.1748 6.43032C13.1872 6.4389 13.1971 6.45071 13.2033 6.46447C13.2093 6.47887 13.211 6.49465 13.2084 6.51003C13.2058 6.52585 13.1986 6.54056 13.1878 6.5524L13.1864 6.5539L4.10311 16.5539L4.10309 16.5539L4.09932 16.5581C4.0868 16.5721 4.06992 16.5814 4.05143 16.5846C4.03293 16.5878 4.01389 16.5847 3.9974 16.5757C3.9809 16.5668 3.96792 16.5525 3.96056 16.5352C3.95319 16.518 3.95188 16.4987 3.95682 16.4806L3.95761 16.4777L5.46594 10.861L5.71959 9.9165H4.7416H1.53327H1.52031L1.50736 9.91695C1.49432 9.9174 1.48137 9.91479 1.46953 9.90932C1.4577 9.90386 1.44731 9.89569 1.4392 9.88547C1.4311 9.87526 1.4255 9.86329 1.42286 9.85052C1.42023 9.83775 1.42062 9.82454 1.42402 9.81195L1.42437 9.81065L3.65759 1.47773L8.37253 6.4165ZM5.0092 13.2043L6.2874 13.9053L11.8207 7.83858L12.9658 6.58317H11.2666H8.2916H8.27864L8.26569 6.58362C8.25266 6.58407 8.2397 6.58146 8.22787 6.57599C8.21603 6.57052 8.20564 6.56235 8.19754 6.55214C8.18943 6.54193 8.18383 6.52996 8.1812 6.51719C8.17856 6.50441 8.17896 6.4912 8.18236 6.47862L8.18272 6.47727L9.24105 2.52727L9.49401 1.58317H8.5166H4.40827H3.83252L3.68374 2.13936L1.90041 8.80603L1.64794 9.74984H2.62494H5.82494V9.74995L5.83805 9.74972C5.85106 9.7495 5.86393 9.75232 5.87566 9.75796C5.88638 9.76312 5.89586 9.77052 5.90347 9.77964C5.9103 9.78946 5.91494 9.80065 5.91706 9.81244C5.91937 9.82533 5.91862 9.83858 5.91486 9.85112L5.91189 9.86102L5.9092 9.87101L5.0092 13.2043Z" fill="black" stroke="#242424" stroke-width="1.5"/>
</svg>
