<svg width="20" height="20" viewBox="0 0 20 20" fill="none" xmlns="http://www.w3.org/2000/svg">
<path fill-rule="evenodd" clip-rule="evenodd" d="M14.0573 12.8812C16.0937 10.2658 15.9098 6.48194 13.5055 4.07762C10.902 1.47413 6.68087 1.47413 4.07738 4.07762C1.47388 6.68112 1.47388 10.9022 4.07738 13.5057C6.48169 15.91 10.2656 16.094 12.881 14.0575C12.8923 14.0703 12.904 14.0828 12.9162 14.095L16.4517 17.6305C16.7772 17.9559 17.3048 17.9559 17.6303 17.6305C17.9557 17.3051 17.9557 16.7774 17.6303 16.452L14.0947 12.9165C14.0825 12.9043 14.07 12.8925 14.0573 12.8812ZM12.327 5.25613C14.2796 7.20875 14.2796 10.3746 12.327 12.3272C10.3743 14.2798 7.20851 14.2798 5.25589 12.3272C3.30327 10.3746 3.30327 7.20875 5.25589 5.25613C7.20851 3.30351 10.3743 3.30351 12.327 5.25613Z" fill="#242424"/>
</svg>
